<svg width="74" height="73" viewBox="0 0 74 73" fill="none" xmlns="http://www.w3.org/2000/svg">
<path d="M50.6664 0.0758514H23.0311C10.3117 0.0758514 0 10.2769 0 22.8386V50.152C0 62.7231 10.3117 72.9147 23.0311 72.9147H50.6664C63.3858 72.9147 73.6974 62.7231 73.6974 50.152V22.8386C73.6974 10.2769 63.3858 0.0758514 50.6664 0.0758514ZM66.791 50.1614C66.791 58.9499 59.5584 66.0982 50.6664 66.0982H23.0311C14.139 66.0982 6.90644 58.9499 6.90644 50.1614V22.8386C6.90644 14.0501 14.139 6.90183 23.0311 6.90183H50.6664C59.5584 6.90183 66.791 14.0501 66.791 22.8386V50.1614Z" fill="#7A3C97"/>
<path d="M36.8535 18.2879C26.6761 18.2879 18.4268 26.4412 18.4268 36.5C18.4268 46.5588 26.6761 54.7121 36.8535 54.7121C47.0309 54.7121 55.2803 46.5588 55.2803 36.5C55.2803 26.4412 47.0213 18.2879 36.8535 18.2879ZM36.8535 47.8861C30.5034 47.8861 25.3332 42.7761 25.3332 36.5C25.3332 30.2239 30.5034 25.1139 36.8535 25.1139C43.2036 25.1139 48.3738 30.2144 48.3738 36.5C48.3643 42.7761 43.194 47.8861 36.8535 47.8861Z" fill="#7A3C97"/>
<path d="M56.6616 19.3498C58.0178 19.3498 59.1172 18.2631 59.1172 16.9227C59.1172 15.5823 58.0178 14.4957 56.6616 14.4957C55.3054 14.4957 54.2059 15.5823 54.2059 16.9227C54.2059 18.2631 55.3054 19.3498 56.6616 19.3498Z" fill="#7A3C97"/>
</svg>
