<svg width="75" height="73" viewBox="0 0 75 73" fill="none" xmlns="http://www.w3.org/2000/svg">
<path fill-rule="evenodd" clip-rule="evenodd" d="M35.1839 28.6122C38.4261 29.7119 41.9848 28.0718 43.1263 24.9338C44.2678 21.8052 42.5604 18.3638 39.3182 17.264C36.076 16.1643 32.5172 17.8044 31.3758 20.9425C30.2439 24.0805 31.9417 27.5125 35.1839 28.6122Z" fill="#7A3C97"/>
<path fill-rule="evenodd" clip-rule="evenodd" d="M50.8481 0H23.4526C10.6181 0 0.220093 10.2769 0.220093 22.9618V50.0382C0.220093 62.7231 10.6181 73 23.4526 73H50.8481C63.6826 73 74.0806 62.7231 74.0806 50.0382V22.9618C74.0902 10.2769 63.6826 0 50.8481 0ZM23.0785 18.1268C25.8315 10.5613 34.4166 6.59844 42.2439 9.25299C50.0711 11.917 54.1862 20.203 51.4237 27.759C48.6707 35.3244 40.0856 39.2873 32.2583 36.6327C24.4406 33.9687 20.3255 25.6827 23.0785 18.1268ZM44.6899 50.2468C47.088 52.5505 49.5244 54.8069 51.9321 57.1012C53.4956 58.618 53.5723 60.7796 52.4309 62.5335C51.203 64.4201 48.6611 64.8847 46.6755 63.8039C46.1479 63.5195 45.6779 63.1308 45.1311 62.6283C42.57 60.1729 39.9993 57.7079 37.3902 55.2999C37.0448 55.6222 36.4789 56.191 36.0281 56.6271C33.7547 58.8266 31.5389 61.0925 29.2463 63.2825C27.3662 65.1312 24.5749 64.9416 22.7523 63.0739C21.3998 61.6803 21.2176 59.4239 22.4454 57.8786C23.1264 57.0538 23.913 56.3143 24.69 55.5748C26.455 53.8304 29.4094 51.0905 31.0017 49.2987C28.1048 48.3886 24.5845 47.3268 22.148 45.6013C20.0761 44.1413 19.7883 41.629 21.1696 39.6286C21.6876 38.8701 22.4358 38.3297 23.6157 38.0453C24.9394 37.7325 26.2343 38.0074 27.395 38.6426C30.8578 40.5482 33.889 41.5057 38.4645 41.1929C41.275 40.9179 44.076 40.2069 46.5124 38.7943C47.4237 38.2729 48.4213 37.7514 49.486 37.6945C50.5891 37.6377 52.0472 38.2255 52.7858 39.0029C54.3493 40.6619 54.474 43.3923 52.7378 44.9661C52.4692 45.2126 52.1239 45.4591 51.7786 45.6771C48.6707 47.45 46.8865 48.3032 43.3374 49.0522C43.8074 49.4219 44.287 49.8675 44.6899 50.2468Z" fill="#7A3C97"/>
</svg>
