<svg width="74" height="73" viewBox="0 0 74 73" fill="none" xmlns="http://www.w3.org/2000/svg">
<path fill-rule="evenodd" clip-rule="evenodd" d="M50.7675 0H23.372C10.5376 0 0.139526 10.2769 0.139526 22.9618V50.0382C0.139526 62.7231 10.5376 73 23.372 73H50.7675C63.602 73 74 62.7231 74 50.0382V22.9618C74 10.2769 63.602 0 50.7675 0ZM61.626 31.9588C57.1944 32.0347 52.8587 30.5083 49.2232 28.0813C49.204 34.4143 49.2232 40.7568 49.2136 47.0897C48.9834 50.5122 47.6213 53.8588 45.3863 56.4849C42.3839 60.0307 37.7892 62.287 33.089 62.287C28.4751 62.4861 23.8228 60.4857 20.7341 57.1391C20.6094 57.0348 20.3984 57.0253 20.3505 56.8547C17.9044 53.9631 16.3889 50.2847 16.2833 46.4925C16.1107 41.7617 18.173 37.0119 21.703 33.817C24.6286 31.2193 28.5135 29.8542 32.4079 29.6456C33.2425 29.7404 34.1825 29.5413 34.9691 29.8921C34.9787 32.8974 34.9787 35.8932 34.9691 38.8986C32.2353 38.0453 29.0794 38.8796 27.1897 41.0317C25.8085 42.5012 25.1082 44.5679 25.2521 46.5588C25.3193 47.8671 25.866 49.0996 26.5375 50.2088C26.6334 50.2562 26.7005 50.3416 26.7581 50.4269C28.7629 53.2616 32.9259 54.2001 36.0338 52.6832C38.6429 51.4603 40.2544 48.6351 40.2448 45.8194C40.2736 34.1394 40.1873 22.4499 40.2928 10.7794C42.4511 10.6751 44.6381 10.7699 46.806 10.7319H46.8731C47.6309 10.8173 48.4654 10.5518 49.1944 10.8268C49.252 13.6519 50.3071 16.4203 52.0721 18.6387C52.2256 18.743 52.3695 18.8757 52.4942 19.0179C54.2112 20.914 56.5421 22.2887 59.0745 22.8196C59.9282 23.0471 60.8874 22.9144 61.7123 23.1894C61.7315 25.9103 61.7123 28.6406 61.7219 31.3616C61.5972 31.5132 61.837 31.8451 61.626 31.9588Z" fill="#7A3C97"/>
</svg>
