<svg width="75" height="73" viewBox="0 0 75 73" fill="none" xmlns="http://www.w3.org/2000/svg">
<path fill-rule="evenodd" clip-rule="evenodd" d="M51.461 0H24.0655C11.231 0 0.833008 10.2769 0.833008 22.9618V50.0382C0.833008 62.7231 11.231 73 24.0655 73H51.461C64.2955 73 74.6935 62.7231 74.6935 50.0382V22.9618C74.6935 10.2769 64.2955 0 51.461 0ZM62.3866 55.7929L54.8375 55.8971C54.8375 55.8971 53.2164 56.2195 51.0774 54.769C48.2476 52.8539 45.5906 47.8766 43.5186 48.5213C41.4083 49.1755 41.4755 53.6597 41.4755 53.6597C41.4755 53.6597 41.4947 54.6173 41.015 55.1292C40.4971 55.6886 39.4803 55.7929 39.4803 55.7929H36.1038C36.1038 55.7929 28.6506 56.2384 22.0799 49.4788C14.9241 42.1125 8.60276 27.4935 8.60276 27.4935C8.60276 27.4935 8.23825 26.536 8.63153 26.0714C9.07278 25.55 10.291 25.5121 10.291 25.5121L18.3677 25.4647C18.3677 25.4647 19.1255 25.5879 19.6722 25.9861C20.1231 26.3084 20.3725 26.9152 20.3725 26.9152C20.3725 26.9152 21.677 30.1765 23.4036 33.1249C26.7801 38.8891 28.3533 40.15 29.4947 39.5338C31.1638 38.6331 30.665 31.39 30.665 31.39C30.665 31.39 30.6938 28.7639 29.8209 27.5883C29.1494 26.6782 27.8736 26.4127 27.3077 26.3369C26.8569 26.28 27.5955 25.2371 28.5643 24.7631C30.0223 24.0616 32.5834 24.0236 35.6146 24.0521C37.9743 24.071 38.6553 24.2227 39.5762 24.4408C42.358 25.1044 41.4179 27.6736 41.4179 33.8265C41.4179 35.7984 41.0534 38.5668 42.5019 39.4958C43.1254 39.8845 44.6313 39.5527 48.4203 33.2008C50.214 30.1955 51.557 26.6497 51.557 26.6497C51.557 26.6497 51.8447 26.0145 52.3052 25.7491C52.7752 25.4742 53.3987 25.5595 53.3987 25.5595L61.8974 25.5121C61.8974 25.5121 64.449 25.2087 64.8615 26.3464C65.2931 27.5409 63.9022 30.3377 60.4298 34.9073C54.7224 42.4158 54.0989 41.7143 58.8279 46.0564C63.3555 50.2088 64.2859 52.2187 64.4394 52.4747C66.3387 55.5558 62.3866 55.7929 62.3866 55.7929Z" fill="#7A3C97"/>
</svg>
