<svg width="179" height="258" fill="none" xmlns="http://www.w3.org/2000/svg"><mask id="a" maskUnits="userSpaceOnUse" x="0" y="0" width="179" height="259"><path d="M0 258.5V24L179 0v233L0 258.5z" fill="#7A3C97"/></mask><g mask="url(#a)" stroke="#fff" stroke-opacity=".2" stroke-width=".75"><path d="M-121.129 142.726L118.266-98.389M57.429 352.244l239.394-241.115M-116.774 147.836L122.621-93.279M-112.419 152.946L126.976-88.169M-108.064 158.057L131.331-83.058M-103.708 163.167L135.686-77.948M-99.353 168.277L140.04-72.838M-94.998 173.387L144.396-67.728M-90.643 178.497L148.75-62.618M-86.288 183.608L153.106-57.507M-81.933 188.718L157.46-52.397M-77.578 193.828L161.816-47.287M-73.223 198.938L166.17-42.177M-68.868 204.048L170.526-37.066M-64.513 209.159L174.881-31.956M-60.158 214.269L179.236-26.846M-55.803 219.379L183.592-21.736M-51.448 224.489L187.947-16.626M-47.093 229.599L192.302-11.516M-42.738 234.71L196.657-6.405M-38.383 239.82L201.012-1.295M-34.028 244.93L205.367 3.815M-29.673 250.04L209.722 8.925M-25.317 255.15L214.077 14.035M-20.962 260.261L218.432 19.146M-16.607 265.371L222.787 24.256M-12.252 270.481L227.142 29.366M-7.897 275.591L231.497 34.476M-3.542 280.701L235.852 39.586M.813 285.812L240.207 44.697M5.168 290.922L244.562 49.807M9.523 296.032L248.917 54.917M13.878 301.142L253.272 60.027M18.233 306.252L257.627 65.137M22.588 311.363L261.982 70.248M26.943 316.473L266.338 75.358M31.298 321.583L270.693 80.468M35.653 326.693L275.048 85.578M40.008 331.803L279.403 90.688M44.363 336.914L283.758 95.799M48.718 342.024l239.395-241.115M53.074 347.134l239.394-241.115"/></g></svg>