<svg width="237" height="100" viewBox="0 0 237 100" fill="none" xmlns="http://www.w3.org/2000/svg">
<g clip-path="url(#clip0)">
<path fill-rule="evenodd" clip-rule="evenodd" d="M34.56 19.8V28.74L21.15 36.48L7.75 44.22V59.7V75.17L21.15 82.91L34.56 90.65L47.96 82.91L61.36 75.17V59.7V44.22L69.11 39.75V59.7V79.65L51.83 89.62L34.56 99.6L17.28 89.62L0 79.65V59.7V39.75L17.28 29.77L34.56 19.8Z" fill="#7A3C97"/>
<path fill-rule="evenodd" clip-rule="evenodd" d="M69.23 32.99L40.6 16.31L69.23 0V15.82V32.99Z" fill="#7A3C97"/>
<path d="M43.9 57.13C42.57 52.3 37.76 49.36 32.92 50.26V50.27C32.62 50.32 32.31 50.39 32.01 50.47C31.71 50.56 31.41 50.65 31.13 50.76V50.75C26.51 52.45 23.88 57.43 25.21 62.27C26.54 67.11 31.35 70.04 36.19 69.14V69.13C36.49 69.08 36.8 69.01 37.1 68.93C37.4 68.84 37.7 68.75 37.98 68.63V68.64C42.6 66.95 45.23 61.96 43.9 57.13ZM55.53 59.64C55.53 61.42 55.31 63.18 54.87 64.87C52.59 64.66 50.28 65.76 49.08 67.89C47.88 70.01 48.1 72.55 49.45 74.4C48.22 75.64 46.83 76.73 45.29 77.63C43.99 76.07 41.95 75.24 39.87 75.52L39.88 75.55C39.58 75.58 39.27 75.64 38.96 75.72C38.66 75.81 38.36 75.91 38.09 76.04L38.08 76.01C36.15 76.83 34.82 78.59 34.5 80.6C32.72 80.61 30.96 80.38 29.27 79.95C29.48 77.67 28.37 75.37 26.26 74.17C24.14 72.96 21.59 73.19 19.74 74.54C18.5 73.31 17.41 71.92 16.5 70.39C18.27 68.93 19.12 66.51 18.47 64.16C17.82 61.8 15.85 60.16 13.58 59.81C13.57 58.03 13.8 56.27 14.23 54.58C16.52 54.81 18.84 53.7 20.05 51.57C21.26 49.44 21.03 46.88 19.66 45.02C20.89 43.78 22.28 42.69 23.82 41.78C25.11 43.36 27.17 44.21 29.26 43.93L29.25 43.9C29.55 43.87 29.86 43.81 30.17 43.73C30.47 43.64 30.77 43.54 31.04 43.41L31.05 43.44C32.99 42.61 34.33 40.83 34.63 38.81C36.41 38.81 38.17 39.03 39.86 39.46C39.63 41.75 40.74 44.07 42.87 45.29C45 46.5 47.56 46.27 49.41 44.9C50.65 46.13 51.74 47.52 52.64 49.06C50.86 50.52 50.01 52.94 50.66 55.3C51.3 57.65 53.26 59.29 55.53 59.64Z" fill="white"/>
<path fill-rule="evenodd" clip-rule="evenodd" d="M139.96 42.47C141.72 42.47 143.16 43.9 143.16 45.66C143.16 47.42 141.73 48.86 139.96 48.86C138.2 48.86 136.77 47.43 136.77 45.66C136.77 43.9 138.2 42.47 139.96 42.47ZM139.96 39.3C143.48 39.3 146.33 42.15 146.33 45.67C146.33 49.19 143.48 52.04 139.96 52.04C136.44 52.04 133.59 49.19 133.59 45.67C133.59 42.15 136.44 39.3 139.96 39.3ZM161.79 42.91L161.81 51.99H158.14L158.13 45.36L148.22 51.99L148.21 39.26H151.87V45.9L161.81 39.26V42.9L161.79 42.91ZM158.78 33.24V36.21L155 38.75L151.22 36.32V33.35L155 35.89L158.78 33.24ZM125.26 42.51V44.1H127.66C127.88 44.1 128.07 44.03 128.22 43.87C128.38 43.71 128.45 43.52 128.45 43.3C128.45 43.08 128.37 42.89 128.22 42.74C128.07 42.59 127.88 42.51 127.66 42.51H125.26ZM122.07 39.31H124.65H125.26H127.66C128.76 39.31 129.7 39.7 130.48 40.48C131.26 41.26 131.65 42.2 131.65 43.3C131.65 44.4 131.26 45.35 130.48 46.13C129.7 46.91 128.76 47.3 127.66 47.3H125.26V52.09H122.07V39.31ZM92.81 39.26H103.36V42.44H99.92L99.91 51.99H96.26V42.44H92.81V39.26ZM113.48 44.53L119.54 51.99H115.36L111.03 46.67L109.62 47.9V52H105.95V39.26H109.62V44.25L115.36 39.26H119.54L113.48 44.53ZM84.96 42.47C86.72 42.47 88.16 43.9 88.16 45.66C88.16 47.42 86.73 48.86 84.96 48.86C83.2 48.86 81.77 47.43 81.77 45.66C81.76 43.9 83.19 42.47 84.96 42.47ZM84.95 39.3C88.47 39.3 91.32 42.15 91.32 45.67C91.32 49.19 88.47 52.04 84.95 52.04C81.43 52.04 78.58 49.19 78.58 45.67C78.59 42.15 81.44 39.3 84.95 39.3Z" fill="#7A3C97"/>
<path fill-rule="evenodd" clip-rule="evenodd" d="M127.66 61.77C132.55 61.77 136.51 65.73 136.51 70.62C136.51 75.51 132.55 79.47 127.66 79.47C122.77 79.47 118.81 75.51 118.81 70.62C118.81 65.73 122.77 61.77 127.66 61.77ZM127.66 66.18C130.11 66.18 132.1 68.17 132.1 70.62C132.1 73.07 130.11 75.06 127.66 75.06C125.21 75.06 123.22 73.07 123.22 70.62C123.22 68.17 125.21 66.18 127.66 66.18ZM94.25 61.67L105.05 67.93L115.86 61.67V79.2H110.81V69.9L105.05 73.57L99.26 69.88L99.29 79.21H94.25V61.67ZM215.12 61.67L225.92 67.93L236.73 61.67V79.2H231.68V69.9L225.92 73.57L220.13 69.88L220.16 79.21H215.12V61.67ZM203.33 61.53C208.24 61.53 212.22 65.51 212.22 70.41C212.22 75.32 208.24 79.3 203.33 79.3C198.42 79.3 194.45 75.32 194.45 70.41C194.45 65.51 198.43 61.53 203.33 61.53ZM203.33 65.96C205.79 65.96 207.79 67.96 207.79 70.42C207.79 72.88 205.79 74.88 203.33 74.88C200.87 74.88 198.87 72.88 198.87 70.42C198.88 67.95 200.87 65.96 203.33 65.96ZM148.21 61.65C151.57 61.65 154.48 63.54 155.96 66.31L152.19 68.54C151.49 67.05 149.97 66.02 148.21 66.02C145.78 66.02 143.81 67.99 143.81 70.42C143.81 72.85 145.78 74.82 148.21 74.82C149.78 74.82 151.15 74 151.93 72.77L155.61 75.13C154.05 77.57 151.32 79.19 148.21 79.19C143.37 79.19 139.44 75.26 139.44 70.42C139.44 65.57 143.37 61.65 148.21 61.65ZM159.14 61.66H161.76H163.52H171H172.76H175.38L175.37 79.15H171V66.03H163.51L163.5 79.15H159.13V61.66H159.14ZM179.06 61.71H182.59H183.42H186.7C188.2 61.71 189.49 62.24 190.55 63.3C191.61 64.36 192.14 65.65 192.14 67.15C192.14 68.66 191.61 69.95 190.55 71.01C189.49 72.07 188.2 72.6 186.7 72.6H183.42V79.14H179.06V61.71ZM183.42 66.07V68.25H186.7C187 68.25 187.25 68.15 187.47 67.94C187.68 67.73 187.79 67.47 187.79 67.16C187.79 66.86 187.68 66.6 187.47 66.39C187.26 66.18 187 66.08 186.7 66.08H183.42V66.07Z" fill="#7A3C97"/>
<path fill-rule="evenodd" clip-rule="evenodd" d="M79.53 79.17L80.53 74.25H78.58V72.52H80.88L81.74 68.34H78.58V66.61H82.09L83.1 61.67H84.83L83.82 66.61H87.43L88.44 61.67H90.17L89.16 66.61H91.16V68.34H88.81L87.95 72.52H91.16V74.25H87.6L86.6 79.17H84.87L85.87 74.25H82.26L81.26 79.17H79.53ZM82.62 72.53H86.23L87.08 68.35H83.48L82.62 72.53Z" fill="#7A3C97"/>
</g>
<defs>
<clipPath id="clip0">
<rect width="236.73" height="99.6" fill="white"/>
</clipPath>
</defs>
</svg>
